<svg xmlns="http://www.w3.org/2000/svg" viewBox="0 0 96 96" width="96" height="96" fill="none">
<ellipse cx="48" cy="82" rx="22" ry="3.5" fill="#1B2A6B" opacity="0.08"/>
<path d="M48 18 C48 14 53 14 53 18" stroke="#1B2A6B" stroke-width="2.4" fill="none" stroke-linecap="round"/>
<path d="M48 24 L30 36 M48 24 L66 36" stroke="#34479B" stroke-width="2.2" stroke-linecap="round"/>
<path d="M48 30 L41 28 L34 33 L22 41 L28 50 L31 47 L31 78 L65 78 L65 47 L68 50 L74 41 L62 33 L55 28 L48 30 Z" fill="#1B2A6B"/>
<path d="M34 33 L22 41 L28 50 L31 47 L31 78 L40 78 L37 35 Z" fill="#34479B"/>
<path d="M41 28 L48 33 L55 28 L48 30 Z" fill="#EA5640"/>
<path d="M44 30 L48 36 L52 30" stroke="#EA5640" stroke-width="2" fill="none" stroke-linecap="round"/>
</svg>
