<svg xmlns="http://www.w3.org/2000/svg" viewBox="0 0 96 96" width="96" height="96" fill="none">
<ellipse cx="50" cy="80" rx="38" ry="3.5" fill="#1B2A6B" opacity="0.08"/>
<!-- heel block -->
<path d="M16 64 L26 64 L26 74 C26 75 25 76 23 76 L18 76 C16 76 15 75 15 73 Z" fill="#3A2A1B"/>
<!-- sole -->
<path d="M14 62 L84 62 C89 62 91 65 90 68 C90 70 88 71 85 71 L17 71 C13 71 11 68 12 65 C12 63 13 62 14 62 Z" fill="#2A1D11"/>
<path d="M16 64 L86 64" stroke="#5A4631" stroke-width="1.2" stroke-linecap="round"/>
<!-- upper: side profile, heel at left, long toe to the right -->
<path d="M18 62
L18 46
C18 41 20 39 24 39
C28 39 30 42 34 43
L40 38
C43 36 46 36 49 38
C62 41 74 47 85 55
C88 57 88 61 85 62
Z" fill="#6B4A2E"/>
<!-- heel collar / ankle opening -->
<path d="M18 46 C18 41 20 39 24 39 C28 39 30 42 33 43 L31 47 C28 45 25 44 23 45 C21 46 20 49 20 52 Z" fill="#4F3620"/>
<!-- tongue -->
<path d="M34 43 L40 38 C42 37 44 37 46 38 L43 46 C40 44 37 44 35 46 Z" fill="#4F3620"/>
<!-- lace facing + closed lacing -->
<g stroke="#E7DAC4" stroke-width="1.8" stroke-linecap="round">
<path d="M35 47 L44 43"/>
<path d="M36 51 L45 47"/>
<path d="M37 55 L46 51"/>
</g>
<g fill="#2A1D11">
<circle cx="35" cy="47" r="1"/><circle cx="44" cy="43" r="1"/>
<circle cx="36" cy="51" r="1"/><circle cx="45" cy="47" r="1"/>
<circle cx="37" cy="55" r="1"/><circle cx="46" cy="51" r="1"/>
</g>
<!-- vamp seam separating lacing area from toe -->
<path d="M48 39 C50 46 50 54 49 61" stroke="#3A2A1B" stroke-width="1.4" fill="none" stroke-linecap="round"/>
<!-- toe cap seam -->
<path d="M72 49 C75 53 76 57 75 61" stroke="#3A2A1B" stroke-width="1.4" fill="none" stroke-linecap="round"/>
<!-- shine on the toe -->
<path d="M55 45 C64 46 73 49 81 55" stroke="#8A6440" stroke-width="1.6" fill="none" stroke-linecap="round" opacity="0.7"/>
</svg>
