<svg xmlns="http://www.w3.org/2000/svg" viewBox="0 0 96 96" width="96" height="96" fill="none">
<ellipse cx="48" cy="82" rx="22" ry="3.5" fill="#1B2A6B" opacity="0.08"/>
<path d="M30 24 Q48 40 66 24" stroke="#1B2A6B" stroke-width="2.2" fill="none" stroke-linecap="round"/>
<circle cx="48" cy="40" r="3.2" fill="#EA5640"/>
<rect x="44" y="32" width="8" height="3" rx="1" fill="#EA5640" opacity="0"/>
<rect x="62" y="54" width="7" height="6" rx="1.5" fill="#111C50"/>
<rect x="62" y="72" width="7" height="6" rx="1.5" fill="#111C50"/>
<circle cx="65.5" cy="66" r="8.5" fill="#1B2A6B"/>
<circle cx="65.5" cy="66" r="5.5" fill="#E7EBFB"/>
<path d="M65.5 66 L65.5 62 M65.5 66 L68 68" stroke="#EA5640" stroke-width="1.6" stroke-linecap="round"/>
<path d="M24 52 C24 42 40 42 40 52" stroke="#1B2A6B" stroke-width="3" fill="none"/>
<path d="M18 52 L46 52 L49 78 L15 78 Z" fill="#1B2A6B"/>
<path d="M18 52 L28 52 L29 78 L15 78 Z" fill="#34479B"/>
<rect x="27" y="52" width="10" height="7" rx="2" fill="#EA5640"/>
</svg>
