<svg xmlns="http://www.w3.org/2000/svg" viewBox="0 0 512 512" fill="none">
  <g stroke="#1F2937" stroke-width="12" stroke-linecap="round" stroke-linejoin="round">
    <circle cx="312" cy="166" r="96" fill="#FFFFFF"/>
    <path d="M312 126 348 152 334 194 290 194 276 152Z" fill="#1F2937"/>
    <path d="M312 126V94M348 152l30-12M334 194l18 30M290 194l-18 30M276 152l-30-12" stroke-width="10"/>
    <path d="M64 364c0-46 38-72 100-72h74c72 0 132 30 152 60 10 14-2 30-20 30H92c-16 0-28-10-28-18Z" fill="#EF4444"/>
    <rect x="60" y="378" width="336" height="32" rx="15" fill="#FFFFFF"/>
    <path d="M150 322l44 20M138 348l48 18" stroke="#FFFFFF" stroke-width="10"/>
  </g>
</svg>
