<svg xmlns="http://www.w3.org/2000/svg" viewBox="0 0 96 96" width="96" height="96" fill="none">
<ellipse cx="48" cy="82" rx="22" ry="3.5" fill="#1B2A6B" opacity="0.08"/>
<path d="M38 46 C34 36 36 30 39 29 C40 34 41 40 41 46 Z" fill="#34479B"/>
<path d="M41 46 C40 36 43 30 46 30 C46 36 45 41 43 46 Z" fill="#1B2A6B"/>
<rect x="46" y="32" width="9" height="16" rx="2" fill="#1B2A6B"/>
<rect x="48" y="28" width="5" height="5" rx="1.5" fill="#EA5640"/>
<rect x="47.5" y="38" width="6" height="6" fill="#E7EBFB"/>
<circle cx="61" cy="42" r="7" fill="#EA5640"/>
<path d="M61 35 C63 32 66 32 66 34 C66 36 63 37 61 36 Z" fill="#1B2A6B"/>
<path d="M28 48 L68 48 L65 78 L31 78 Z" fill="#1B2A6B"/>
<path d="M28 48 L40 48 L38 78 L31 78 Z" fill="#34479B"/>
<path d="M48 49 L47 78" stroke="#111C50" stroke-width="1" opacity="0.35"/>
<rect x="27" y="44" width="42" height="6" rx="2" fill="#34479B"/>
</svg>
