<svg xmlns="http://www.w3.org/2000/svg" viewBox="0 0 512 512" fill="none">
  <g stroke="#1F2937" stroke-width="12" stroke-linecap="round" stroke-linejoin="round">
    <path d="M256 176C198 146 116 146 66 166V388C116 368 198 368 256 398 314 368 396 368 446 388V166C396 146 314 146 256 176Z" fill="#2563EB"/>
    <path d="M256 176C214 154 150 152 100 164V356C150 344 214 346 256 366Z" fill="#FFFFFF"/>
    <path d="M256 176C298 154 362 152 412 164V356C362 344 298 346 256 366Z" fill="#FFFFFF"/>
    <path d="M256 176V366" stroke-width="10"/>
    <path d="M128 204h96M128 236h96M288 204h96M288 236h84" stroke="#9CA3AF" stroke-width="8"/>
    <path d="M300 374 392 200 420 215 328 389Z" fill="#FACC15"/>
    <path d="M392 200 420 215 432 186Z" fill="#FB923C"/>
    <path d="M300 374 312 382" stroke-width="8"/>
  </g>
</svg>
