<svg xmlns="http://www.w3.org/2000/svg" viewBox="0 0 96 96" width="96" height="96" fill="none">
<ellipse cx="48" cy="82" rx="22" ry="3.5" fill="#1B2A6B" opacity="0.08"/>
<rect x="22" y="34" width="3.4" height="38" rx="1.7" fill="#1B2A6B"/>
<rect x="20.5" y="32" width="1.6" height="9" rx="0.8" fill="#1B2A6B"/>
<rect x="23.2" y="32" width="1.6" height="9" rx="0.8" fill="#1B2A6B"/>
<rect x="25.9" y="32" width="1.6" height="9" rx="0.8" fill="#1B2A6B"/>
<path d="M70 32 C74 32 75 40 73 48 L71 48 L71 72 L67.6 72 L67.6 48 C70 44 68 34 70 32 Z" fill="#1B2A6B"/>
<circle cx="48" cy="54" r="21" fill="#1B2A6B"/>
<path d="M48 33 A21 21 0 0 0 48 75 Z" fill="#34479B"/>
<circle cx="48" cy="54" r="13" fill="#E7EBFB"/>
<circle cx="48" cy="54" r="21" fill="none" stroke="#EA5640" stroke-width="2"/>
</svg>
