<svg xmlns="http://www.w3.org/2000/svg" viewBox="0 0 512 512" fill="none">
  <g stroke="#1F2937" stroke-width="12" stroke-linecap="round" stroke-linejoin="round">
    <g transform="rotate(-32 256 300)">
      <rect x="234" y="64" width="44" height="122" fill="#92400E"/>
      <rect x="222" y="34" width="68" height="48" rx="10" fill="#1F2937"/>
      <circle cx="214" cy="50" r="7" fill="#FACC15"/>
      <circle cx="214" cy="68" r="7" fill="#FACC15"/>
      <circle cx="298" cy="50" r="7" fill="#FACC15"/>
      <circle cx="298" cy="68" r="7" fill="#FACC15"/>
      <path d="M256 172C300 172 322 202 322 237C322 267 300 287 292 302C300 322 340 357 340 397C340 442 305 460 256 460C207 460 172 442 172 397C172 357 212 322 220 302C212 287 190 267 190 237C190 202 212 172 256 172Z" fill="#FB923C"/>
      <circle cx="256" cy="362" r="40" fill="#7C2D12"/>
      <rect x="232" y="412" width="48" height="16" rx="4" fill="#7C2D12"/>
    </g>
    <circle cx="392" cy="158" r="22" fill="#2563EB"/>
    <path d="M412 158V72" stroke-width="11"/>
    <path d="M412 72c22 6 32 24 22 42" fill="none" stroke-width="12"/>
    <circle cx="318" cy="196" r="17" fill="#EF4444"/>
    <path d="M333 196V126" stroke-width="10"/>
  </g>
</svg>
