<svg xmlns="http://www.w3.org/2000/svg" viewBox="0 0 512 512" fill="none">
  <g stroke="#1F2937" stroke-width="12" stroke-linecap="round" stroke-linejoin="round">
    <path d="M150 148C120 158 110 220 142 272L194 230C172 200 178 164 150 148Z" fill="#92400E"/>
    <path d="M362 148C392 158 402 220 370 272L318 230C340 200 334 164 362 148Z" fill="#92400E"/>
    <circle cx="256" cy="228" r="116" fill="#D97706"/>
    <ellipse cx="256" cy="290" rx="78" ry="58" fill="#FCD34D"/>
    <circle cx="208" cy="208" r="15" fill="#1F2937"/>
    <circle cx="304" cy="208" r="15" fill="#1F2937"/>
    <ellipse cx="256" cy="262" rx="24" ry="17" fill="#1F2937"/>
    <path d="M256 279V304M256 304c-14 12-38 8-38-10M256 304c14 12 38 8 38-10" fill="none" stroke-width="8"/>
    <path d="M150 406H362L338 458H174Z" fill="#EF4444"/>
    <ellipse cx="256" cy="406" rx="106" ry="22" fill="#DC2626"/>
  </g>
</svg>
