<svg xmlns="http://www.w3.org/2000/svg" viewBox="0 0 96 96" width="96" height="96" fill="none">
<ellipse cx="48" cy="82" rx="22" ry="3.5" fill="#1B2A6B" opacity="0.08"/>
<circle cx="36" cy="30" r="7" fill="#1B2A6B"/>
<circle cx="60" cy="30" r="7" fill="#1B2A6B"/>
<circle cx="36" cy="30" r="3" fill="#EA5640"/>
<circle cx="60" cy="30" r="3" fill="#EA5640"/>
<circle cx="48" cy="40" r="15" fill="#1B2A6B"/>
<path d="M48 25 A15 15 0 0 0 48 55 Z" fill="#34479B"/>
<ellipse cx="48" cy="45" rx="8" ry="6" fill="#E7EBFB"/>
<ellipse cx="48" cy="41" rx="2.6" ry="2" fill="#EA5640"/>
<ellipse cx="48" cy="68" rx="16" ry="13" fill="#1B2A6B"/>
<path d="M48 55 A16 13 0 0 0 48 81 Z" fill="#34479B"/>
<ellipse cx="48" cy="69" rx="8" ry="7" fill="#E7EBFB"/>
<path d="M40 56 L48 60 L56 56 L52 62 L44 62 Z" fill="#EA5640"/>
</svg>
