<svg xmlns="http://www.w3.org/2000/svg" viewBox="0 0 96 96" width="96" height="96" fill="none">
<ellipse cx="48" cy="82" rx="22" ry="3.5" fill="#1B2A6B" opacity="0.08"/>
<circle cx="58" cy="30" r="11" fill="#E7EBFB"/>
<circle cx="58" cy="30" r="11" fill="none" stroke="#1B2A6B" stroke-width="1.5"/>
<path d="M58 26 L61.8 28.8 L60.3 33.2 L55.7 33.2 L54.2 28.8 Z" fill="#1B2A6B"/>
<path d="M58 26 L58 19 M61.8 28.8 L68.5 26.6 M60.3 33.2 L64.5 38.9 M55.7 33.2 L51.5 38.9 M54.2 28.8 L47.5 26.6" stroke="#1B2A6B" stroke-width="1.4" stroke-linecap="round"/>
<path d="M58 19 L62 20 M58 19 L54 20 M68.5 26.6 L68 31 M51.5 38.9 L55 40 M64.5 38.9 L61 40" stroke="#1B2A6B" stroke-width="1.4" stroke-linecap="round"/>
<rect x="30" y="55" width="36" height="6" rx="3" fill="#1B2A6B"/>
<rect x="23" y="47" width="9" height="22" rx="3" fill="#1B2A6B"/>
<rect x="64" y="47" width="9" height="22" rx="3" fill="#1B2A6B"/>
<rect x="23" y="47" width="3.5" height="22" rx="3" fill="#34479B"/>
<rect x="64" y="47" width="3.5" height="22" rx="3" fill="#34479B"/>
<rect x="18" y="51" width="6" height="14" rx="2" fill="#EA5640"/>
<rect x="72" y="51" width="6" height="14" rx="2" fill="#EA5640"/>
</svg>
