<svg xmlns="http://www.w3.org/2000/svg" viewBox="0 0 96 96" width="96" height="96" fill="none">
<ellipse cx="48" cy="82" rx="22" ry="3.5" fill="#1B2A6B" opacity="0.08"/>
<circle cx="26" cy="62" r="12" fill="#111C50"/>
<circle cx="26" cy="62" r="5.5" fill="#E7EBFB"/>
<circle cx="26" cy="62" r="2" fill="#EA5640"/>
<circle cx="72" cy="62" r="12" fill="#111C50"/>
<circle cx="72" cy="62" r="5.5" fill="#E7EBFB"/>
<circle cx="72" cy="62" r="2" fill="#EA5640"/>
<path d="M32 56 L60 56 L65 62 L34 62 Z" fill="#1B2A6B"/>
<path d="M40 54 C42 46 56 45 61 50 L61 56 L40 56 Z" fill="#1B2A6B"/>
<path d="M40 54 C42 47 50 46 54 46 L49 56 L40 56 Z" fill="#34479B"/>
<path d="M26 52 L43 50 L43 55 L29 57 Z" fill="#111C50"/>
<path d="M72 62 L65 43" stroke="#1B2A6B" stroke-width="3" stroke-linecap="round"/>
<path d="M60 41 L70 40" stroke="#1B2A6B" stroke-width="3" stroke-linecap="round"/>
<rect x="57" y="39" width="5" height="3" rx="1.5" fill="#EA5640"/>
<circle cx="65" cy="48" r="3.5" fill="#EA5640"/>
<path d="M34 57 L28 62 M60 56 L72 62" stroke="#1B2A6B" stroke-width="2.5" stroke-linecap="round"/>
</svg>
