<svg xmlns="http://www.w3.org/2000/svg" viewBox="0 0 96 96" width="96" height="96" fill="none">
<ellipse cx="48" cy="82" rx="22" ry="3.5" fill="#1B2A6B" opacity="0.08"/>
<path d="M48 34 C40 29 28 29 20 33 L20 64 C28 60 40 60 48 65 Z" fill="#1B2A6B"/>
<path d="M48 34 C56 29 68 29 76 33 L76 64 C68 60 56 60 48 65 Z" fill="#34479B"/>
<rect x="46.5" y="34" width="3" height="31" fill="#111C50"/>
<path d="M55 37 L70 37 M55 43 L70 43 M55 49 L68 49" stroke="#E7EBFB" stroke-width="1.8" stroke-linecap="round"/>
<rect x="62" y="30" width="6" height="16" fill="#EA5640"/>
<path d="M62 46 L65 42 L68 46 Z" fill="#C7402C"/>
<g transform="rotate(38 50 66)">
<rect x="40" y="60" width="34" height="7" rx="1" fill="#EA5640"/>
<rect x="40" y="60" width="34" height="3" rx="1" fill="#C7402C" opacity="0.4"/>
<path d="M74 60 L80 63.5 L74 67 Z" fill="#E7EBFB"/>
<rect x="36" y="60" width="4" height="7" fill="#111C50"/>
</g>
</svg>
