<svg xmlns="http://www.w3.org/2000/svg" viewBox="0 0 96 96" width="96" height="96" fill="none">
<ellipse cx="48" cy="82" rx="22" ry="3.5" fill="#1B2A6B" opacity="0.08"/>
<g transform="rotate(20 48 50)">
<rect x="45" y="14" width="6" height="6" rx="1" fill="#111C50"/>
<circle cx="44" cy="16" r="1.6" fill="#EA5640"/>
<circle cx="52" cy="16" r="1.6" fill="#EA5640"/>
<rect x="45.5" y="20" width="5" height="24" fill="#1B2A6B"/>
<ellipse cx="48" cy="44" rx="11" ry="12" fill="#1B2A6B"/>
<ellipse cx="48" cy="60" rx="16" ry="17" fill="#1B2A6B"/>
<path d="M48 28 A16 16 0 0 0 36 50 A16 16 0 0 0 36 70 A16 16 0 0 0 48 77 Z" fill="#34479B" opacity="0.55"/>
<circle cx="48" cy="55" r="5.5" fill="#111C50"/>
<circle cx="48" cy="55" r="5.5" fill="none" stroke="#EA5640" stroke-width="2"/>
<path d="M46 22 L46 49 M50 22 L50 49" stroke="#E7EBFB" stroke-width="0.9"/>
</g>
</svg>
