<svg xmlns="http://www.w3.org/2000/svg" viewBox="0 0 96 96" width="96" height="96" fill="none">
<ellipse cx="48" cy="82" rx="22" ry="3.5" fill="#1B2A6B" opacity="0.08"/>
<ellipse cx="30" cy="42" rx="5.5" ry="7.5" fill="#1B2A6B"/>
<ellipse cx="42" cy="33" rx="5.5" ry="7.5" fill="#1B2A6B"/>
<ellipse cx="54" cy="33" rx="5.5" ry="7.5" fill="#1B2A6B"/>
<ellipse cx="66" cy="42" rx="5.5" ry="7.5" fill="#1B2A6B"/>
<path d="M30 60 C30 50 40 47 48 47 C56 47 66 50 66 60 C66 70 58 73 48 73 C38 73 30 70 30 60 Z" fill="#1B2A6B"/>
<path d="M48 47 C40 47 30 50 30 60 C30 70 38 73 48 73 Z" fill="#34479B"/>
<g transform="translate(60 70) rotate(30)">
<circle cx="-4" cy="-2" r="3" fill="#EA5640"/>
<circle cx="-4" cy="2" r="3" fill="#EA5640"/>
<circle cx="6" cy="-2" r="3" fill="#EA5640"/>
<circle cx="6" cy="2" r="3" fill="#EA5640"/>
<rect x="-4" y="-2" width="10" height="4" fill="#EA5640"/>
</g>
</svg>
